<svg width="33" height="33" viewBox="0 0 33 33" fill="none" xmlns="http://www.w3.org/2000/svg">
<path d="M2.92285 15.4157L30.03 3.08787M30.03 3.08787L24.9621 1.17859M30.03 3.08787L28.1443 8.15573M31.2321 31.8214H25.3393V15.3214C25.3393 15.0089 25.4634 14.7091 25.6845 14.4881C25.9055 14.267 26.2053 14.1429 26.5179 14.1429H30.0536C30.3661 14.1429 30.6659 14.267 30.8869 14.4881C31.108 14.7091 31.2321 15.0089 31.2321 15.3214V31.8214ZM19.4464 31.8214H13.5536V18.8572C13.5536 18.5446 13.6777 18.2448 13.8988 18.0238C14.1198 17.8028 14.4196 17.6786 14.7321 17.6786H18.2679C18.5804 17.6786 18.8802 17.8028 19.1012 18.0238C19.3223 18.2448 19.4464 18.5446 19.4464 18.8572V31.8214ZM7.66071 31.8214H1.76785V22.3929C1.76785 22.0803 1.89202 21.7805 2.11305 21.5595C2.33407 21.3385 2.63385 21.2143 2.94642 21.2143H6.48214C6.79471 21.2143 7.09449 21.3385 7.31551 21.5595C7.53654 21.7805 7.66071 22.0803 7.66071 22.3929V31.8214Z" stroke="#0064AC" stroke-width="2" stroke-linecap="round" stroke-linejoin="round"/>
</svg>
