<svg width="44" height="44" viewBox="0 0 44 44" fill="none" xmlns="http://www.w3.org/2000/svg">
<path d="M31.9257 19.0923C33 18.018 33 16.291 33 12.8333C33 9.37567 33 7.64867 31.9257 6.57433M31.9257 19.0923C30.8513 20.1667 29.1243 20.1667 25.6667 20.1667H18.3333C14.8757 20.1667 13.1487 20.1667 12.0743 19.0923M31.9257 6.57433C30.8513 5.5 29.1243 5.5 25.6667 5.5H18.3333C14.8757 5.5 13.1487 5.5 12.0743 6.57433M12.0743 6.57433C11 7.64867 11 9.37567 11 12.8333C11 16.291 11 18.018 12.0743 19.0923M23.8333 12.8333C23.8333 13.3196 23.6402 13.7859 23.2964 14.1297C22.9525 14.4735 22.4862 14.6667 22 14.6667C21.5138 14.6667 21.0475 14.4735 20.7036 14.1297C20.3598 13.7859 20.1667 13.3196 20.1667 12.8333C20.1667 12.3471 20.3598 11.8808 20.7036 11.537C21.0475 11.1932 21.5138 11 22 11C22.4862 11 22.9525 11.1932 23.2964 11.537C23.6402 11.8808 23.8333 12.3471 23.8333 12.8333Z" stroke="#0064AC" stroke-width="1.5"/>
<path d="M33 11C31.5413 11 30.1424 10.4205 29.1109 9.38909C28.0795 8.35764 27.5 6.95869 27.5 5.5M33 14.6667C31.5413 14.6667 30.1424 15.2461 29.1109 16.2776C28.0795 17.309 27.5 18.708 27.5 20.1667M11 11C12.4587 11 13.8576 10.4205 14.8891 9.38909C15.9205 8.35764 16.5 6.95869 16.5 5.5M11 14.6667C12.4587 14.6667 13.8576 15.2461 14.8891 16.2776C15.9205 17.309 16.5 18.708 16.5 20.1667M7.33334 39.2113H11.4767C13.3283 39.2113 15.2038 39.4057 17.006 39.776C20.2237 40.435 23.5339 40.5083 26.7777 39.9923M25.0727 33.9478C25.2927 33.9222 25.5035 33.8934 25.7052 33.8617C27.3753 33.5958 28.7778 32.7012 30.0612 31.7313L33.3758 29.2288C33.9675 28.7995 34.6798 28.5683 35.4108 28.5683C36.1419 28.5683 36.8542 28.7995 37.4458 29.2288C38.4963 30.0227 38.819 31.3298 38.1535 32.3968C37.378 33.6398 36.2853 35.2293 35.2367 36.201M25.0727 33.9478L24.871 33.9698M25.0727 33.9478C25.3661 33.8683 25.6351 33.7171 25.8555 33.5078C26.1322 33.2691 26.3582 32.9773 26.5201 32.6497C26.682 32.3221 26.7765 31.9653 26.7981 31.6005C26.8196 31.2357 26.7677 30.8703 26.6455 30.5259C26.5233 30.1815 26.3332 29.8651 26.0865 29.5955C25.8476 29.3303 25.5694 29.1033 25.2615 28.9227C20.1337 25.8628 12.1532 28.193 7.33334 31.6122M25.0727 33.9478C25.0065 33.9626 24.9388 33.97 24.871 33.9698M24.871 33.9698C23.7653 34.0806 22.6515 34.0831 21.5453 33.9772" stroke="#0064AC" stroke-width="1.5" stroke-linecap="round"/>
</svg>
