<svg width="38" height="38" viewBox="0 0 38 38" fill="none" xmlns="http://www.w3.org/2000/svg">
<path d="M25.3333 25.3334C25.3333 23.5838 20.3712 22.1667 14.25 22.1667M25.3333 25.3334C25.3333 27.0829 20.3712 28.5 14.25 28.5C8.12883 28.5 3.16667 27.0829 3.16667 25.3334M25.3333 25.3334V33.1503C25.3333 34.9537 20.3712 36.4167 14.25 36.4167C8.12883 36.4167 3.16667 34.9553 3.16667 33.1503V25.3334M25.3333 25.3334C31.388 25.3334 36.4167 23.7706 36.4167 22.1667V6.33335M14.25 22.1667C8.12883 22.1667 3.16667 23.5838 3.16667 25.3334M14.25 22.1667C7.25483 22.1667 1.58333 20.6039 1.58333 19V11.0834M14.25 7.91669C7.25483 7.91669 1.58333 9.33377 1.58333 11.0834M1.58333 11.0834C1.58333 12.8329 7.25483 14.25 14.25 14.25C14.25 15.8539 19.4006 17.4167 25.4552 17.4167C31.5099 17.4167 36.4167 15.8539 36.4167 14.25M36.4167 6.33335C36.4167 4.58377 31.5083 3.16669 25.4552 3.16669C19.4022 3.16669 14.4938 4.58377 14.4938 6.33335M36.4167 6.33335C36.4167 8.08294 31.5083 9.50002 25.4552 9.50002C19.4022 9.50002 14.4938 8.08294 14.4938 6.33335M14.4938 6.33335V22.4295" stroke="#0064AC" stroke-width="2"/>
</svg>
